<?xml version="1.0" standalone="no"?>
<!DOCTYPE svg PUBLIC "-//W3C//DTD SVG 20010904//EN"
 "http://www.w3.org/TR/2001/REC-SVG-20010904/DTD/svg10.dtd">
<svg version="1.0" xmlns="http://www.w3.org/2000/svg"
 width="2040.000000pt" height="2040.000000pt" viewBox="0 0 2040.000000 2040.000000"
 preserveAspectRatio="xMidYMid meet">
<metadata>
Created by potrace 1.14, written by Peter Selinger 2001-2017
</metadata>
<g transform="translate(0.000000,2040.000000) scale(0.100000,-0.100000)"
fill="#000000" stroke="none">
<path d="M2638 14500 c-83 -21 -162 -72 -249 -159 -96 -97 -155 -182 -233
-338 -202 -405 -368 -992 -560 -1983 -81 -419 -126 -678 -276 -1605 -250
-1532 -338 -2026 -465 -2600 -197 -888 -408 -1442 -632 -1663 -60 -58 -107
-85 -177 -103 l-46 -11 0 -81 0 -80 56 6 c118 12 263 109 368 246 258 337 482
1033 705 2186 92 475 158 857 301 1745 293 1810 423 2484 601 3118 279 999
606 1369 929 1053 272 -266 522 -1026 764 -2321 94 -504 222 -1253 297 -1745
7 -44 15 -89 19 -100 7 -19 8 -18 14 5 3 14 38 219 76 455 100 620 144 874
211 1240 260 1416 507 2182 794 2467 73 72 131 101 213 106 55 4 71 0 127 -27
282 -139 545 -798 791 -1984 87 -420 220 -1176 373 -2127 164 -1008 268 -1606
357 -2050 275 -1369 554 -2051 909 -2226 123 -60 248 -63 389 -10 303 115 527
504 717 1246 66 258 128 549 244 1145 150 774 221 1098 320 1460 264 960 616
1472 1073 1561 43 8 134 14 216 14 928 0 1644 -571 2190 -1748 200 -431 332
-790 605 -1642 281 -879 356 -1086 503 -1390 224 -466 471 -685 768 -683 136
0 237 49 357 171 84 86 151 189 238 367 270 550 480 1440 790 3345 19 118 48
298 65 400 152 939 153 948 241 1445 234 1332 482 2180 739 2530 95 129 208
205 305 205 208 0 421 -298 604 -848 203 -608 366 -1384 622 -2962 33 -206 87
-539 120 -740 317 -1953 530 -2853 805 -3403 161 -321 329 -479 542 -512 l43
-7 -3 88 -3 89 -35 5 c-195 32 -396 335 -569 856 -83 253 -193 662 -251 939
-136 647 -218 1098 -385 2130 -80 495 -99 609 -170 1035 -157 935 -240 1365
-365 1875 -205 843 -422 1332 -675 1524 -102 77 -159 96 -285 96 -101 0 -108
-1 -182 -38 -269 -131 -501 -571 -708 -1342 -166 -620 -299 -1319 -576 -3030
-58 -361 -173 -1052 -195 -1170 -58 -318 -74 -409 -114 -615 -230 -1182 -458
-1861 -717 -2135 -133 -141 -255 -164 -426 -79 -208 102 -393 398 -610 974
-52 138 -167 483 -303 910 -346 1087 -553 1608 -835 2100 -446 782 -992 1236
-1664 1383 -238 52 -537 66 -705 33 -474 -93 -833 -524 -1103 -1321 -151 -445
-244 -845 -468 -2005 -126 -656 -233 -1102 -329 -1378 -136 -391 -287 -621
-461 -704 -112 -53 -210 -56 -299 -11 -43 23 -141 119 -190 188 -233 327 -458
1066 -669 2195 -59 315 -95 512 -105 575 -5 33 -37 224 -71 425 -33 201 -72
433 -85 515 -13 83 -38 236 -55 340 -181 1121 -293 1741 -406 2255 -239 1082
-488 1673 -785 1863 -142 91 -285 101 -426 32 -235 -115 -434 -448 -619 -1034
-105 -331 -227 -841 -323 -1341 -76 -399 -76 -398 -151 -834 -17 -99 -31 -181
-33 -182 -1 -1 -17 84 -35 189 -280 1611 -491 2405 -761 2859 -66 110 -88 140
-174 226 -102 104 -204 155 -320 158 -45 2 -99 -1 -119 -6z"/>
<path d="M10756 14400 c-16 -5 -40 -19 -54 -32 -51 -47 -52 -59 -52 -468 0
-447 7 -420 -107 -420 -90 0 -136 -14 -167 -51 -45 -53 -43 -61 134 -564 16
-44 76 -217 135 -385 58 -168 113 -315 121 -327 23 -36 51 -47 85 -32 39 15
42 23 137 294 44 127 133 380 197 564 64 184 119 349 122 366 7 42 -19 90 -60
112 -20 10 -64 18 -119 21 -64 3 -91 9 -102 21 -13 14 -16 77 -18 406 -3 386
-3 390 -26 427 -40 65 -138 94 -226 68z m141 -106 c10 -14 13 -97 13 -378 0
-199 5 -379 10 -400 20 -90 76 -128 199 -134 47 -3 89 -9 93 -15 9 -15 23 28
-344 -1017 -16 -47 -31 -91 -34 -99 -2 -8 -6 -12 -8 -10 -1 2 -28 76 -59 164
-31 88 -117 335 -192 549 -75 214 -134 397 -133 405 3 13 23 17 95 22 111 8
151 29 182 93 20 40 21 58 21 420 l0 377 26 26 c22 22 32 25 72 20 28 -3 51
-12 59 -23z"/>
<path d="M17618 13723 c-25 -29 -37 -56 -93 -221 -30 -86 -117 -337 -194 -557
-158 -449 -164 -476 -111 -525 34 -32 67 -40 161 -40 61 0 70 -2 88 -26 20
-26 21 -37 21 -406 0 -430 0 -429 75 -473 86 -51 209 -25 258 55 22 34 22 43
25 425 3 329 5 392 18 406 11 13 38 18 107 21 107 4 148 25 167 83 13 41 13
42 -82 315 -36 102 -80 228 -98 280 -143 411 -222 629 -238 650 -24 32 -81 39
-104 13z m247 -668 c102 -292 185 -540 185 -552 0 -28 -17 -33 -106 -33 -87 0
-121 -14 -161 -67 l-28 -36 -5 -398 c-4 -308 -8 -401 -18 -411 -8 -8 -36 -13
-68 -13 -88 0 -84 -19 -84 415 0 370 0 376 -22 420 -35 69 -75 90 -169 90 -42
0 -84 3 -93 6 -29 11 -29 12 104 389 16 44 82 232 147 418 80 229 120 332 125
320 4 -10 91 -257 193 -548z"/>
</g>
</svg>
