<?xml version="1.0" encoding="utf-8"?>
<!-- Generator: Adobe Illustrator 27.1.0, SVG Export Plug-In . SVG Version: 6.00 Build 0)  -->
<svg version="1.1" id="Layer_1" xmlns="http://www.w3.org/2000/svg" xmlns:xlink="http://www.w3.org/1999/xlink" x="0px" y="0px"
	 viewBox="0 0 300 300" style="enable-background:new 0 0 300 300;" xml:space="preserve">
<style type="text/css">
	.st0{fill:none;stroke:#A7A9AC;stroke-width:2;stroke-miterlimit:10;}
	.st1{fill:none;stroke:#B93657;stroke-width:2;stroke-miterlimit:10;}
	.st2{fill:none;stroke:#F6881F;stroke-width:2;stroke-miterlimit:10;}
	.st3{fill:none;stroke:#57266D;stroke-width:2;stroke-miterlimit:10;}
	.st4{fill:none;stroke:#B93657;stroke-miterlimit:10;}
	.st5{fill:none;stroke:#57266D;stroke-miterlimit:10;}
</style>
<g>
	<path class="st0" d="M78.8,87.8c20.1,0,20.1,124.5,40.2,124.5"/>
	<path class="st0" d="M0,212.2c20.1,0,20.1-124.5,40.2-124.5"/>
	<path class="st1" d="M119,212.2c20.1,0,11.6-80.4,40.2-80.4c44.6,0,40.2,80.4,60.3,80.4"/>
	<path class="st2" d="M40.2,87.8c9.5,0,14.5,27.8,19.3,57.1c4.8-29.3,9.8-57.1,19.3-57.1"/>
	<path class="st3" d="M219.6,212.2c20.1,0,20.1-124.5,40.2-124.5s20.1,124.5,40.2,124.5"/>
	<g>
		<g>
			<g>
				<path class="st4" d="M161.2,100.7c0,0.9,0.8,1.7,1.7,1.7h1.6c0.9,0,1.4,0.7,1.1,1.6l-5.8,16.5c-0.3,0.9-0.8,0.9-1.1,0l-5.8-16.5
					c-0.3-0.9,0.2-1.6,1.1-1.6h1.6c0.9,0,1.7-0.8,1.7-1.7V90.4c0-0.9,0.8-1.7,1.7-1.7h0.6c0.9,0,1.7,0.8,1.7,1.7L161.2,100.7z"/>
			</g>
		</g>
	</g>
	<g>
		<g>
			<g>
				<path class="st5" d="M257.8,118.8c0-0.9-0.8-1.7-1.7-1.7h-1.6c-0.9,0-1.4-0.7-1.1-1.6l5.8-16.5c0.3-0.9,0.8-0.9,1.1,0l5.8,16.5
					c0.3,0.9-0.2,1.6-1.1,1.6h-1.6c-0.9,0-1.7,0.8-1.7,1.7v10.4c0,0.9-0.8,1.7-1.7,1.7h-0.6c-0.9,0-1.7-0.8-1.7-1.7L257.8,118.8z"/>
			</g>
		</g>
	</g>
</g>
</svg>
