<?xml version="1.0" encoding="utf-8"?>
<!-- Generator: Adobe Illustrator 27.2.0, SVG Export Plug-In . SVG Version: 6.00 Build 0)  -->
<svg version="1.1" id="Layer_1" xmlns="http://www.w3.org/2000/svg" xmlns:xlink="http://www.w3.org/1999/xlink" x="0px" y="0px"
	 viewBox="0 0 255.1 109.9" style="enable-background:new 0 0 255.1 109.9;" xml:space="preserve">
<style type="text/css">
	.st0{fill:none;stroke:#A7A9AC;stroke-width:2;stroke-miterlimit:10;}
	.st1{fill:none;stroke:#B93657;stroke-width:2;stroke-miterlimit:10;}
	.st2{fill:none;stroke:#F6881F;stroke-width:2;stroke-miterlimit:10;}
	.st3{fill:none;stroke:#57266D;stroke-width:2;stroke-miterlimit:10;}
	.st4{fill:none;stroke:#B93657;stroke-miterlimit:10;}
	.st5{fill:none;stroke:#57266D;stroke-miterlimit:10;}
</style>
<path class="st0" d="M67,2c17.1,0,17.1,105.9,34.2,105.9"/>
<path class="st0" d="M0,107.9C17.1,107.9,17.1,2,34.2,2"/>
<path class="st1" d="M101.2,107.9c17.1,0,9.9-68.4,34.2-68.4c38,0,34.2,68.4,51.3,68.4"/>
<path class="st2" d="M34.2,2c8.1,0,12.3,23.6,16.4,48.6C54.7,25.7,58.9,2,67,2"/>
<path class="st3" d="M186.7,107.9C203.8,107.9,203.8,2,220.9,2C238,2,238,107.9,255.1,107.9"/>
<g>
	<g>
		<g>
			<path class="st4" d="M137.1,13.1c0,0.8,0.6,1.4,1.4,1.4h1.3c0.8,0,1.2,0.6,0.9,1.3l-4.9,14c-0.3,0.7-0.7,0.7-0.9,0l-4.9-14
				c-0.3-0.7,0.2-1.3,0.9-1.3h1.3c0.8,0,1.4-0.6,1.4-1.4V4.3c0-0.8,0.6-1.4,1.4-1.4h0.5c0.8,0,1.4,0.6,1.4,1.4L137.1,13.1z"/>
		</g>
	</g>
</g>
<g>
	<g>
		<g>
			<path class="st5" d="M219.2,28.4c0-0.8-0.6-1.4-1.4-1.4h-1.3c-0.8,0-1.2-0.6-0.9-1.3l4.9-14c0.3-0.7,0.7-0.7,0.9,0l4.9,14
				c0.3,0.7-0.2,1.3-0.9,1.3H224c-0.8,0-1.4,0.6-1.4,1.4v8.8c0,0.8-0.6,1.4-1.4,1.4h-0.5c-0.8,0-1.4-0.6-1.4-1.4L219.2,28.4z"/>
		</g>
	</g>
</g>
</svg>
